<svg width="11" height="7" viewBox="0 0 11 7" fill="none" xmlns="http://www.w3.org/2000/svg">
<path d="M9.62501 0.761147L1.37501 0.761146C1.29148 0.761384 1.20961 0.782327 1.1382 0.82172C1.06679 0.861113 1.00855 0.917465 0.969751 0.984709C0.930951 1.05195 0.913059 1.12755 0.918001 1.20335C0.922944 1.27915 0.950532 1.35229 0.997798 1.4149L5.1228 6.83156C5.29376 7.05615 5.70534 7.05615 5.87676 6.83156L10.0018 1.4149C10.0495 1.35242 10.0775 1.27924 10.0827 1.20332C10.0879 1.12739 10.0701 1.05161 10.0313 0.984227C9.99248 0.91684 9.93407 0.860416 9.86244 0.821087C9.79081 0.781757 9.70869 0.761027 9.62501 0.761147Z" fill="#8C8C8C"/>
</svg>
