<svg width="150" height="32" viewBox="0 0 150 32" fill="none" xmlns="http://www.w3.org/2000/svg">
<path d="M0 10C0 4.47715 4.47715 0 10 0H140C145.523 0 150 4.47715 150 10V22C150 27.5228 145.523 32 140 32H10C4.47715 32 0 27.5228 0 22V10Z" fill="#353535"/>
<g clip-path="url(#clip0_2_322)">
<path fill-rule="evenodd" clip-rule="evenodd" d="M24 8C19.582 8 16 11.582 16 16C16 20.4187 19.582 24 24 24C28.418 24 32 20.4187 32 16C32 11.582 28.418 8 24 8ZM29.3309 13.8119C28.9923 14.3199 29.6269 15.3779 29.0776 14.9966C28.5269 14.6159 28.3156 13.7699 27.8083 12.8386C27.2996 11.9079 25.9043 12.4586 26.3696 12.7126C26.8349 12.9666 26.6236 13.2199 25.6076 13.7706C24.5929 14.3199 23.2809 12.2046 22.9423 12.0779C22.6043 11.9506 23.8736 14.1926 24.1269 14.5733C24.3809 14.9539 25.3949 14.1079 25.4383 14.5306C25.4809 14.9539 24.4656 16.1806 23.7043 16.6033C22.9423 17.0266 23.9583 18.5073 23.6196 18.4653C23.2803 18.4233 22.9003 19.1419 22.7729 19.8186C22.6469 20.4959 22.0956 21.1726 21.2503 20.8766C20.4029 20.5806 19.6423 19.8186 19.8963 18.6766C20.1509 17.5339 19.2623 16.2653 19.1769 15.7573C19.0923 15.2493 18.5429 15.3339 17.781 15.2919C17.6356 15.2839 17.5116 15.2073 17.4016 15.0993C17.843 11.8486 20.6296 9.33325 24.0003 9.33325C26.6056 9.33325 28.8609 10.8393 29.9569 13.0233C29.7596 13.0839 29.5309 13.5126 29.3309 13.8119ZM24.2111 18.8047C24.8038 18.5501 25.1418 17.5774 25.1838 18.1274C25.2257 18.6774 25.1838 20.2847 24.2531 20.0314C23.9051 19.936 23.6191 19.0587 24.2111 18.8047Z" fill="white"/>
</g>
<path d="M78.2969 13.728H74.2915V17.0034H78.9443V18H73.0728V8.75781H78.8809V9.76074H74.2915V12.7314H78.2969V13.728ZM81.3882 11.1318L81.4263 11.9951C81.951 11.335 82.6366 11.0049 83.4829 11.0049C84.9344 11.0049 85.6665 11.8237 85.6792 13.4614V18H84.5049V13.4551C84.5007 12.96 84.3864 12.5939 84.1621 12.3569C83.9421 12.12 83.5972 12.0015 83.1274 12.0015C82.7466 12.0015 82.4123 12.103 82.1245 12.3062C81.8368 12.5093 81.6125 12.7759 81.4517 13.106V18H80.2773V11.1318H81.3882ZM87.1709 14.5088C87.1709 13.4382 87.4185 12.5876 87.9136 11.957C88.4087 11.3223 89.0646 11.0049 89.8813 11.0049C90.7192 11.0049 91.373 11.3011 91.8428 11.8936L91.8999 11.1318H92.9727V17.835C92.9727 18.7236 92.7082 19.424 92.1792 19.936C91.6545 20.4481 90.9478 20.7041 90.0591 20.7041C89.564 20.7041 89.0794 20.5983 88.6055 20.3867C88.1315 20.1751 87.7697 19.8853 87.52 19.5171L88.1294 18.8125C88.633 19.4346 89.2487 19.7456 89.9766 19.7456C90.5479 19.7456 90.9922 19.5848 91.3096 19.2632C91.6312 18.9416 91.792 18.4888 91.792 17.9048V17.3145C91.3223 17.8561 90.6812 18.127 89.8687 18.127C89.0646 18.127 88.4129 17.8032 87.9136 17.1558C87.4185 16.5083 87.1709 15.626 87.1709 14.5088ZM88.3516 14.6421C88.3516 15.4165 88.5103 16.0259 88.8276 16.4702C89.145 16.9103 89.5894 17.1304 90.1606 17.1304C90.9012 17.1304 91.445 16.7939 91.792 16.1211V12.9854C91.4323 12.3294 90.8927 12.0015 90.1733 12.0015C89.6021 12.0015 89.1556 12.2236 88.834 12.668C88.5124 13.1123 88.3516 13.7703 88.3516 14.6421ZM96.0259 18H94.8516V8.25H96.0259V18ZM99.187 18H98.0127V11.1318H99.187V18ZM97.9175 9.31006C97.9175 9.11963 97.9746 8.95882 98.0889 8.82764C98.2074 8.69645 98.3809 8.63086 98.6094 8.63086C98.8379 8.63086 99.0114 8.69645 99.1299 8.82764C99.2484 8.95882 99.3076 9.11963 99.3076 9.31006C99.3076 9.50049 99.2484 9.65918 99.1299 9.78613C99.0114 9.91309 98.8379 9.97656 98.6094 9.97656C98.3809 9.97656 98.2074 9.91309 98.0889 9.78613C97.9746 9.65918 97.9175 9.50049 97.9175 9.31006ZM105.071 16.1782C105.071 15.8608 104.951 15.6154 104.709 15.4419C104.472 15.2642 104.056 15.1118 103.459 14.9849C102.867 14.8579 102.395 14.7056 102.043 14.5278C101.696 14.3501 101.438 14.1385 101.269 13.8931C101.104 13.6476 101.021 13.3556 101.021 13.0171C101.021 12.4543 101.258 11.9782 101.732 11.5889C102.211 11.1995 102.82 11.0049 103.561 11.0049C104.339 11.0049 104.97 11.2059 105.452 11.6079C105.939 12.0099 106.182 12.5241 106.182 13.1504H105.001C105.001 12.8288 104.864 12.5516 104.589 12.3188C104.318 12.0861 103.975 11.9697 103.561 11.9697C103.133 11.9697 102.799 12.0628 102.558 12.249C102.316 12.4352 102.196 12.6785 102.196 12.979C102.196 13.2625 102.308 13.4762 102.532 13.6201C102.757 13.764 103.161 13.9015 103.745 14.0327C104.333 14.1639 104.809 14.3205 105.173 14.5024C105.537 14.6844 105.806 14.9045 105.979 15.1626C106.157 15.4165 106.246 15.7275 106.246 16.0957C106.246 16.7093 106 17.2023 105.509 17.5747C105.018 17.9429 104.382 18.127 103.599 18.127C103.049 18.127 102.562 18.0296 102.139 17.835C101.715 17.6403 101.383 17.3695 101.142 17.0225C100.905 16.6712 100.787 16.2925 100.787 15.8862H101.961C101.982 16.2798 102.139 16.5929 102.431 16.8257C102.727 17.0542 103.116 17.1685 103.599 17.1685C104.043 17.1685 104.398 17.0796 104.665 16.9019C104.936 16.7199 105.071 16.4787 105.071 16.1782ZM108.95 11.9634C109.47 11.3244 110.147 11.0049 110.981 11.0049C112.432 11.0049 113.165 11.8237 113.177 13.4614V18H112.003V13.4551C111.999 12.96 111.884 12.5939 111.66 12.3569C111.44 12.12 111.095 12.0015 110.625 12.0015C110.245 12.0015 109.91 12.103 109.623 12.3062C109.335 12.5093 109.111 12.7759 108.95 13.106V18H107.775V8.25H108.95V11.9634Z" fill="white"/>
<g clip-path="url(#clip1_2_322)">
<path d="M129.681 19.6214C129.305 20.1262 128.695 20.1262 128.319 19.6214L124.282 14.2069C123.906 13.702 123.906 12.8835 124.282 12.3786C124.659 11.8738 125.269 11.8738 125.645 12.3786L128.987 16.8964L132.355 12.3786C132.731 11.8738 133.341 11.8738 133.718 12.3786C134.094 12.8835 134.094 13.702 133.718 14.2069L129.681 19.6214Z" fill="white"/>
</g>
<defs>
<clipPath id="clip0_2_322">
<rect width="16" height="16" fill="white" transform="translate(16 8)"/>
</clipPath>
<clipPath id="clip1_2_322">
<rect width="10" height="8" fill="white" transform="translate(124 12)"/>
</clipPath>
</defs>
</svg>
