<svg width="109" height="33" viewBox="0 0 109 33" fill="none" xmlns="http://www.w3.org/2000/svg">
<g clip-path="url(#clip0_2_16)">
<path d="M22.0196 7.51974C22.0196 11.8182 18.5429 14.9562 14.0704 14.9562C12.4218 14.9562 10.9527 14.5967 10.0713 13.9592C12.7482 12.8152 14.1357 10.4453 14.1357 7.47071C14.1357 3.98945 12.4218 2.01184 9.92433 2.01184H9.74483V19.4999C9.74483 22.3927 10.8384 24.2723 12.8135 25.6615H0C1.46907 24.1906 2.0567 22.3927 2.0567 19.4999V6.16319C2.0567 3.22129 1.46907 1.4398 0 0.00153446H11.9811C18.4286 0.00153446 22.0196 2.82903 22.0196 7.51974Z" fill="black"/>
<path d="M42.163 22.2945C41.7223 24.599 39.8124 26.217 37.2171 26.217C35.0135 26.217 33.3323 24.8932 32.8262 23.3895C31.7326 25.3671 29.6759 26.217 27.4723 26.217C24.4362 26.217 22.3796 24.2067 22.3796 21.4446C22.3796 18.2249 24.6811 15.9858 30.0024 14.6946L32.4508 14.1062V10.821C32.4508 8.76174 31.749 7.92817 30.5084 7.92817C29.3332 7.92817 28.5659 8.69637 28.5659 9.75873C28.5659 10.6739 29.0067 11.2624 29.7739 11.9978C29.7739 13.1745 27.9457 14.384 26.0359 14.384C24.1751 14.384 22.8529 12.9457 22.8529 11.197C22.8529 8.07526 26.2971 5.88518 31.3572 5.88518C36.6295 5.88518 39.4207 8.12429 39.4207 13.1092V20.987C39.4207 21.984 40.0083 22.6377 40.9224 22.6377C41.4611 22.6213 41.8692 22.5233 42.163 22.2945ZM32.4508 21.7551V15.8387L31.9775 15.9858C30.4104 16.4597 29.3332 17.4894 29.3332 19.5487C29.3332 21.3138 30.035 22.3762 31.1613 22.3762C31.749 22.3762 32.2386 22.1964 32.4508 21.7551Z" fill="black"/>
<path d="M62.4844 15.1843C62.4844 22.5227 58.975 26.2165 53.4741 26.2165C52.1192 26.2165 51.1725 25.8569 50.5033 25.4483V27.3115C50.5033 30.139 50.9767 30.9072 53.1476 32.9992H41.493C42.9294 31.3157 43.5497 30.2044 43.5497 27.5403V14.2364C43.5497 12.2588 43.2885 11.2291 42.0807 10.085L41.2319 9.31684L50.3074 5.8683V8.76119C51.4011 6.99603 53.2782 5.8683 55.5471 5.8683C60.5093 5.8683 62.4844 10.4446 62.4844 15.1843ZM54.9758 16.214C54.9758 11.9155 54.2086 9.72549 52.1846 9.72549C51.597 9.72549 51.0093 9.98698 50.5033 10.4282V23.5524C50.8297 23.8466 51.2052 23.961 51.597 23.961C53.2455 23.9446 54.9758 22.1959 54.9758 16.214Z" fill="black"/>
<path d="M81.3038 19.4338C80.1283 24.5331 77.3047 26.2165 73.2077 26.2165C68.523 26.2165 64.1321 22.8006 64.1321 16.3938C64.1321 10.2321 68.017 5.8683 73.1097 5.8683C76.4396 5.8683 81.1242 7.58441 81.1242 14.8575H70.0573C70.8246 18.7473 73.3546 20.7576 76.864 20.7576C78.676 20.7576 79.9166 20.4308 81.3038 19.4338ZM69.8452 12.3242V12.7981H74.6768C74.6768 9.13707 73.877 7.99299 72.3263 7.99299C70.7593 7.99299 69.8452 9.57841 69.8452 12.3242Z" fill="black"/>
<path d="M93.7588 25.6771H82.1037C83.5403 23.9937 84.1606 22.8824 84.1606 20.2182V14.269C84.1606 12.1771 83.8665 11.1964 82.4793 9.90526L81.6794 9.16976L90.4779 5.8683V10.4446C91.3263 7.79689 92.632 5.8683 94.8034 5.8683C96.5662 5.8683 97.6922 7.11044 97.6922 8.94096C97.6922 10.8859 96.4846 12.2424 94.8034 12.2424C94.4442 11.3925 93.5628 11.0003 92.7465 11.0003C92.094 11.0003 91.4573 11.1801 91.1303 11.5069V19.9731C91.1146 22.8169 91.6039 23.5851 93.7588 25.6771Z" fill="black"/>
<path d="M102.137 2.39788H103.828C104.237 2.39788 104.566 2.44188 104.816 2.52987C105.064 2.6032 105.255 2.70587 105.387 2.83786C105.532 2.95519 105.628 3.10185 105.672 3.27784C105.73 3.43917 105.76 3.60782 105.76 3.78381C105.76 4.10646 105.701 4.37045 105.584 4.57577C105.481 4.76643 105.291 4.92043 105.013 5.03775L105.979 6.92965H104.838L104.003 5.25774H103.169V6.92965H102.137V2.39788ZM103.959 4.37778C104.34 4.37778 104.566 4.31912 104.64 4.2018C104.713 4.08447 104.75 3.94514 104.75 3.78381C104.75 3.65182 104.698 3.5345 104.596 3.43183C104.493 3.3145 104.237 3.25584 103.828 3.25584H103.169V4.37778H103.959ZM103.893 9.50353C103.22 9.50353 102.598 9.39353 102.027 9.17353C101.471 8.95353 100.988 8.63822 100.578 8.22761C100.183 7.81695 99.8753 7.31831 99.6558 6.73167C99.4362 6.14503 99.3264 5.48506 99.3264 4.75176C99.3264 4.01847 99.4433 3.3585 99.6777 2.77187C99.9122 2.18523 100.234 1.68658 100.644 1.27594C101.068 0.865291 101.551 0.549973 102.093 0.329984C102.649 0.109994 103.249 0 103.893 0C104.581 0 105.203 0.109994 105.76 0.329984C106.331 0.549973 106.814 0.865291 107.209 1.27594C107.604 1.68658 107.912 2.18523 108.131 2.77187C108.35 3.3585 108.46 4.01847 108.46 4.75176C108.46 5.48506 108.343 6.14503 108.109 6.73167C107.875 7.31831 107.545 7.81695 107.121 8.22761C106.711 8.63822 106.228 8.95353 105.672 9.17353C105.115 9.39353 104.522 9.50353 103.893 9.50353ZM103.871 8.46961C104.882 8.46961 105.701 8.14691 106.331 7.50163C106.974 6.85633 107.297 5.93971 107.297 4.75176C107.297 3.56383 106.974 2.6472 106.331 2.0019C105.701 1.3566 104.882 1.03394 103.871 1.03394C102.861 1.03394 102.042 1.3566 101.412 2.0019C100.798 2.6472 100.49 3.56383 100.49 4.75176C100.49 5.93971 100.798 6.85633 101.412 7.50163C102.042 8.14691 102.861 8.46961 103.871 8.46961Z" fill="black"/>
</g>
<defs>
<clipPath id="clip0_2_16">
<rect width="109" height="33" fill="white"/>
</clipPath>
</defs>
</svg>
